<svg id="Vrstva_1" data-name="Vrstva 1" xmlns="http://www.w3.org/2000/svg" viewBox="0 0 282.75 48.19"><title>logo_iscare</title><path d="M170.19,143.81l-4.92-.49a14.14,14.14,0,0,0-2.52,8.07,14.34,14.34,0,0,0,28.69,0,14.14,14.14,0,0,0-2.52-8.06l-4.91.51a11.46,11.46,0,0,1,4.86,9.32,11.78,11.78,0,0,1-23.56,0,11.46,11.46,0,0,1,4.88-9.34m28-7.76-4,4.17a17.1,17.1,0,0,1,2.06,8.08c0,10-8.58,18.75-19.17,18.75s-19.17-8.71-19.17-18.75a17.16,17.16,0,0,1,2.14-8.27l-3.86-4.46a21.52,21.52,0,0,0-2.45,10c0,12.38,10.45,22.42,23.33,22.42s23.33-10,23.33-22.42A21.48,21.48,0,0,0,198.2,136m-5.29-.71-.08,0c-.06,0-.21-.09-.21-.38s.09-.43.18-.44h1.59a.41.41,0,0,0,0-.81h-1.62c-.34,0-1,.29-1,1.25a1.14,1.14,0,0,0,.81,1.16l1.93.78v.92s0,.12-.25.12h-2a.41.41,0,0,0,0,.81h2a1.06,1.06,0,0,0,.79-.3.94.94,0,0,0,.26-.65v-.89a.69.69,0,0,0-.44-.74Zm-3.78,2.58a.94.94,0,1,1,.94-.94.95.95,0,0,1-.94.94m0-2.7a1.76,1.76,0,1,0,1.4,2.81v.3a.41.41,0,1,0,.81,0v-3.77c0-.5-.51-.78-1-.86h-1.94a.41.41,0,0,0,0,.81h1.81a.77.77,0,0,1,.27.11v1.31a1.75,1.75,0,0,0-1.4-.7m-6.65,8.61a.41.41,0,0,0,.4-.41v-3.81h1a.41.41,0,1,0,0-.81h-1V134.5h3.24a.41.41,0,1,0,0-.81h-3.65a.41.41,0,0,0-.41.41v9.33a.41.41,0,0,0,.41.41m-5.31,0a.41.41,0,0,0,.39-.28l3-9.33a.41.41,0,1,0-.77-.25l-2.63,8.15L174.52,134a.41.41,0,1,0-.77.25l3,9.27a.41.41,0,0,0,.39.28m-4.83-.41v-9.33a.41.41,0,0,0-.81,0v9.33a.41.41,0,1,0,.81,0M190.71,132h3.92a.41.41,0,1,0,0-.81h-3.52v-3.41h1a.41.41,0,1,0,0-.81h-1v-4.3h3.24a.41.41,0,1,0,0-.81h-3.65a.41.41,0,0,0-.41.41v9.33a.41.41,0,0,0,.41.41m-7.24-9.33h3.14a2.31,2.31,0,0,1,1.46.54,1.55,1.55,0,0,1,.42,1.16v1a1.6,1.6,0,0,1-1.75,1.52h-.35a.39.39,0,0,0-.22,0h-2.7Zm-.41,9.33a.41.41,0,0,0,.41-.41v-3.9H186l2.33,4a.41.41,0,1,0,.7-.41L187,127.71a2.39,2.39,0,0,0,2.32-2.29v-1a2.35,2.35,0,0,0-.67-1.74,3.12,3.12,0,0,0-2-.78h-3.54a.41.41,0,0,0-.41.41v9.33a.41.41,0,0,0,.41.41m-5.64-8.67,2.23,5.39h-4.43Zm-4,8.64a.41.41,0,0,0,.53-.22l.91-2.22H180l.9,2.17a.41.41,0,1,0,.75-.31l-3.84-9.27a.41.41,0,0,0-.75,0l-3.82,9.33a.4.4,0,0,0,.22.53m-6,0h4.76a.41.41,0,1,0,0-.81h-4.36V122.7h4.31a.41.41,0,0,0,0-.81h-4.71a.41.41,0,0,0-.41.41v9.33a.41.41,0,0,0,.41.41m-6.77-5.22h4.09l.12,0a.29.29,0,0,1,.18.08c.14.12.47.55.48,2,0,1.65-.4,2.21-.58,2.31H159.9a.41.41,0,0,0,0,.81h5.23c.21,0,1.24-.37,1.23-3.12,0-1.39-.28-2.29-.82-2.7a1,1,0,0,0-.79-.21h-4c-.08,0-.88-.18-.88-1.79,0-1.44,1-1.51,1.17-1.51h3.83a.41.41,0,0,0,0-.81H161a2.08,2.08,0,0,0-2,2.33c0,2.42,1.56,2.59,1.62,2.6M157.91,132a.41.41,0,0,0,.41-.41v-9.33a.41.41,0,1,0-.81,0v9.33a.41.41,0,0,0,.41.41" transform="translate(-153.75 -119.76)" style="fill:#009cdc"/><path d="M412.78,159.29V145.12h19.95V139.4h-20V126.3h22.44v-5.73h-29V165h30.3v-5.72Zm-33.94-18.17q-1.72.16-4.18.16h-4.83v-15h5.62c1.68,0,3.07.05,4.14.16a14.7,14.7,0,0,1,2.75.5,7.4,7.4,0,0,1,3.7,2.31,6.48,6.48,0,0,1,1.34,4.2A6.92,6.92,0,0,1,386,138a8.14,8.14,0,0,1-4.09,2.54,15.17,15.17,0,0,1-3,.57m7.9,3.7a13.11,13.11,0,0,0,3.85-2.6,11.3,11.3,0,0,0,2.51-3.76,12.78,12.78,0,0,0,.89-4.9,11.82,11.82,0,0,0-2.54-7.73,13.68,13.68,0,0,0-7.29-4.36,23.86,23.86,0,0,0-3.78-.68,49,49,0,0,0-5-.21H363.5V165h6.33V147h5.8l15.63,18h6.59l-15.32-18.86a19.8,19.8,0,0,0,4.22-1.34m-57.44,4.41,2.64-6.48q2.48-6.21,5.18-13.7,2.59,7.39,5.08,13.7l2.65,6.48Zm10.42-28.65H334.5L316.4,165h6.72l4.2-10.59h19.5L351.05,165h6.78l-.27-.65Zm-31.5,38.67c-.83.18-1.68.34-2.56.49s-1.74.24-2.6.32-1.67.11-2.44.11a26.69,26.69,0,0,1-7.64-1,15.34,15.34,0,0,1-5.79-3.1,13.76,13.76,0,0,1-3.7-5.28,20.06,20.06,0,0,1-1.31-7.61,19.57,19.57,0,0,1,1.41-7.73,15.71,15.71,0,0,1,3.85-5.52,16.07,16.07,0,0,1,5.76-3.35,22.4,22.4,0,0,1,7.2-1.13,29,29,0,0,1,5,.43,38.73,38.73,0,0,1,4.58,1.08l.61.19v-5.64l-.3-.12a16.42,16.42,0,0,0-2-.64q-1.15-.3-2.48-.51c-.89-.14-1.82-.25-2.78-.33s-1.95-.12-2.94-.12a28.31,28.31,0,0,0-10.19,1.74,22.41,22.41,0,0,0-7.75,4.87,21,21,0,0,0-4.9,7.48,27.94,27.94,0,0,0-.09,18.92,18.61,18.61,0,0,0,4.76,7.08,21.15,21.15,0,0,0,7.74,4.44,33.05,33.05,0,0,0,10.5,1.53,38.4,38.4,0,0,0,5.67-.41,25.52,25.52,0,0,0,4.88-1.18l.31-.11v-5.67l-.62.21c-.64.21-1.38.41-2.2.59M263,143.13a18,18,0,0,0-4.79-2.12q-2.63-.75-5.35-1.37-2-.45-3.85-1a13.55,13.55,0,0,1-3.15-1.29,6.14,6.14,0,0,1-2.08-1.92,5.14,5.14,0,0,1-.75-2.91,7.24,7.24,0,0,1,.59-2.95,5.71,5.71,0,0,1,1.77-2.22,8.76,8.76,0,0,1,3.07-1.45,16.92,16.92,0,0,1,4.47-.52,30,30,0,0,1,6.49.73,42.75,42.75,0,0,1,5.9,1.83l.65.26v-5.93l-.3-.12a35.49,35.49,0,0,0-6-1.76,34.72,34.72,0,0,0-7-.68,25.06,25.06,0,0,0-6.28.76,16.1,16.1,0,0,0-5.26,2.38A12,12,0,0,0,237.4,127a12.27,12.27,0,0,0-1.35,5.93,10.48,10.48,0,0,0,1.3,5.48,10.64,10.64,0,0,0,3.42,3.5,17.68,17.68,0,0,0,4.75,2.09q2.61.74,5.34,1.32,2,.45,3.89,1a13.55,13.55,0,0,1,3.18,1.3,6.39,6.39,0,0,1,2.12,2,5.18,5.18,0,0,1,.77,3,6.92,6.92,0,0,1-.9,3.7,6.5,6.5,0,0,1-2.47,2.32,12.27,12.27,0,0,1-3.73,1.25,26.44,26.44,0,0,1-4.57.38A28,28,0,0,1,246,160q-1.68-.19-3.33-.53t-3.19-.82a22,22,0,0,1-2.76-1l-.67-.32v5.86l.24.14a12.7,12.7,0,0,0,2.28.95,29.09,29.09,0,0,0,3.16.83q1.75.36,3.66.58a33.94,33.94,0,0,0,3.76.22,32.64,32.64,0,0,0,7.35-.78,18.11,18.11,0,0,0,5.88-2.4,11.81,11.81,0,0,0,3.95-4.2,12.24,12.24,0,0,0,1.43-6.06,10.19,10.19,0,0,0-4.8-9.26m-46.31-22.55V165h6.25V120.58h-6.25Z" transform="translate(-153.75 -119.76)" style="fill:#009cdc"/></svg>